<mxfile host="app.diagrams.net" modified="2023-12-19T22:28:10.298Z" agent="Mozilla/5.0 (Windows NT 10.0; Win64; x64) AppleWebKit/537.36 (KHTML, like Gecko) Chrome/120.0.0.0 Safari/537.36" etag="Hqw_yYbAmEbAu8SluMcl" version="22.1.11" type="device">
  <diagram name="Page-1" id="iBF_axwDJWfPt3znukzr">
    <mxGraphModel dx="1815" dy="527" grid="1" gridSize="10" guides="1" tooltips="1" connect="1" arrows="1" fold="1" page="1" pageScale="1" pageWidth="827" pageHeight="1169" math="0" shadow="0">
      <root>
        <mxCell id="0" />
        <mxCell id="1" parent="0" />
        <mxCell id="2EZ9If-iesUBe8Wqhh3Y-325" value="" style="rounded=1;whiteSpace=wrap;html=1;dashed=1;" vertex="1" parent="1">
          <mxGeometry x="-200" y="760" width="100" height="270" as="geometry" />
        </mxCell>
        <mxCell id="2EZ9If-iesUBe8Wqhh3Y-322" value="" style="rounded=0;whiteSpace=wrap;html=1;" vertex="1" parent="1">
          <mxGeometry x="-286" y="772" width="60" height="40" as="geometry" />
        </mxCell>
        <mxCell id="2EZ9If-iesUBe8Wqhh3Y-233" value="" style="rounded=1;whiteSpace=wrap;html=1;dashed=1;" vertex="1" parent="1">
          <mxGeometry x="-510" y="80" width="140" height="310" as="geometry" />
        </mxCell>
        <mxCell id="2EZ9If-iesUBe8Wqhh3Y-2" value="POST https://api.example.com/v1/email/send&lt;br&gt;&lt;font style=&quot;font-size: 11px;&quot; face=&quot;Courier New&quot;&gt;{&lt;br&gt;&amp;nbsp; &quot;to&quot;: [{&quot;user_id&quot;: 123}],&lt;br&gt;&amp;nbsp; &quot;from: {&quot;email&quot;:&quot;a@a.com&quot;}&lt;br&gt;&amp;nbsp; &quot;subject&quot;: &quot;Example&quot;&lt;br&gt;&amp;nbsp; &quot;content&quot;: [&lt;br&gt;&amp;nbsp; &amp;nbsp; {&quot;type&quot;: &quot;text/plain&quot;, &quot;value&quot;: &quot;Example&quot;}&lt;br&gt;&amp;nbsp; ]&lt;br&gt;}&lt;/font&gt;" style="rounded=0;whiteSpace=wrap;html=1;align=left;" vertex="1" parent="1">
          <mxGeometry x="-320" y="390" width="310" height="150" as="geometry" />
        </mxCell>
        <mxCell id="2EZ9If-iesUBe8Wqhh3Y-3" value="&lt;span&gt;Questions:&lt;/span&gt;&lt;br&gt;&amp;nbsp;&lt;span style=&quot;font-weight: normal;&quot;&gt; 1. What types to support ?&lt;br&gt;&amp;nbsp; 2. Is it real-time system ?&lt;br&gt;&amp;nbsp; 3. What are supported devices ?&lt;br&gt;&amp;nbsp; 4. What triggers notification ?&lt;br&gt;&amp;nbsp; 5. Can users opt-out ?&lt;br&gt;&amp;nbsp; 6. How many sent per day ?&lt;br&gt;&lt;/span&gt;" style="rounded=0;whiteSpace=wrap;html=1;align=left;fontStyle=1" vertex="1" parent="1">
          <mxGeometry x="-827" width="280" height="110" as="geometry" />
        </mxCell>
        <mxCell id="2EZ9If-iesUBe8Wqhh3Y-51" value="Problems:&lt;br&gt;1. Single point of failure in case of single notification server.&lt;br&gt;2. Hard to scale: the system handles everything related to push notifications in one server. It&#39;s challenging to scale DB and caches with different notification processing components independently.&lt;br&gt;3. Performance bottleneck with 3rd party systems." style="rounded=0;whiteSpace=wrap;html=1;align=left;" vertex="1" parent="1">
          <mxGeometry x="-270" y="80" width="260" height="152" as="geometry" />
        </mxCell>
        <mxCell id="2EZ9If-iesUBe8Wqhh3Y-52" value="1" style="text;html=1;strokeColor=#d6b656;fillColor=#fff2cc;align=center;verticalAlign=middle;whiteSpace=wrap;rounded=1;glass=0;shadow=1;" vertex="1" parent="1">
          <mxGeometry x="-567" width="20" height="20" as="geometry" />
        </mxCell>
        <mxCell id="2EZ9If-iesUBe8Wqhh3Y-54" value="2" style="text;html=1;strokeColor=#d6b656;fillColor=#fff2cc;align=center;verticalAlign=middle;whiteSpace=wrap;rounded=1;glass=0;shadow=1;" vertex="1" parent="1">
          <mxGeometry x="-360" y="40" width="20" height="20" as="geometry" />
        </mxCell>
        <mxCell id="2EZ9If-iesUBe8Wqhh3Y-56" value="4" style="text;html=1;strokeColor=#d6b656;fillColor=#fff2cc;align=center;verticalAlign=middle;whiteSpace=wrap;rounded=1;glass=0;shadow=1;" vertex="1" parent="1">
          <mxGeometry x="-60" y="359" width="20" height="20" as="geometry" />
        </mxCell>
        <mxCell id="2EZ9If-iesUBe8Wqhh3Y-57" value="5" style="text;html=1;strokeColor=#d6b656;fillColor=#fff2cc;align=center;verticalAlign=middle;whiteSpace=wrap;rounded=1;glass=0;shadow=1;" vertex="1" parent="1">
          <mxGeometry x="-30" y="74" width="20" height="20" as="geometry" />
        </mxCell>
        <mxCell id="2EZ9If-iesUBe8Wqhh3Y-230" style="rounded=0;orthogonalLoop=1;jettySize=auto;html=1;entryX=0;entryY=0.25;entryDx=0;entryDy=0;exitX=1;exitY=0.5;exitDx=0;exitDy=0;" edge="1" parent="1" source="2EZ9If-iesUBe8Wqhh3Y-225" target="2EZ9If-iesUBe8Wqhh3Y-229">
          <mxGeometry relative="1" as="geometry" />
        </mxCell>
        <mxCell id="2EZ9If-iesUBe8Wqhh3Y-225" value="Service 1" style="rounded=1;whiteSpace=wrap;html=1;" vertex="1" parent="1">
          <mxGeometry x="-800" y="137" width="90" height="23" as="geometry" />
        </mxCell>
        <mxCell id="2EZ9If-iesUBe8Wqhh3Y-232" value="" style="rounded=0;orthogonalLoop=1;jettySize=auto;html=1;entryX=0;entryY=0.5;entryDx=0;entryDy=0;" edge="1" parent="1" source="2EZ9If-iesUBe8Wqhh3Y-226" target="2EZ9If-iesUBe8Wqhh3Y-229">
          <mxGeometry relative="1" as="geometry" />
        </mxCell>
        <mxCell id="2EZ9If-iesUBe8Wqhh3Y-226" value="Service 2" style="rounded=1;whiteSpace=wrap;html=1;" vertex="1" parent="1">
          <mxGeometry x="-800" y="170" width="90" height="23" as="geometry" />
        </mxCell>
        <mxCell id="2EZ9If-iesUBe8Wqhh3Y-231" value="" style="rounded=0;orthogonalLoop=1;jettySize=auto;html=1;entryX=0;entryY=0.75;entryDx=0;entryDy=0;" edge="1" parent="1" source="2EZ9If-iesUBe8Wqhh3Y-227" target="2EZ9If-iesUBe8Wqhh3Y-229">
          <mxGeometry relative="1" as="geometry" />
        </mxCell>
        <mxCell id="2EZ9If-iesUBe8Wqhh3Y-227" value="Service N" style="rounded=1;whiteSpace=wrap;html=1;" vertex="1" parent="1">
          <mxGeometry x="-800" y="229" width="90" height="23" as="geometry" />
        </mxCell>
        <mxCell id="2EZ9If-iesUBe8Wqhh3Y-228" value=". . ." style="text;html=1;strokeColor=none;fillColor=none;align=center;verticalAlign=middle;whiteSpace=wrap;rounded=0;" vertex="1" parent="1">
          <mxGeometry x="-785" y="197" width="60" height="30" as="geometry" />
        </mxCell>
        <mxCell id="2EZ9If-iesUBe8Wqhh3Y-248" style="rounded=0;orthogonalLoop=1;jettySize=auto;html=1;entryX=0;entryY=0.5;entryDx=0;entryDy=0;exitX=1;exitY=0;exitDx=0;exitDy=0;" edge="1" parent="1" source="2EZ9If-iesUBe8Wqhh3Y-229" target="2EZ9If-iesUBe8Wqhh3Y-234">
          <mxGeometry relative="1" as="geometry" />
        </mxCell>
        <mxCell id="2EZ9If-iesUBe8Wqhh3Y-250" style="rounded=0;orthogonalLoop=1;jettySize=auto;html=1;entryX=0;entryY=0.5;entryDx=0;entryDy=0;" edge="1" parent="1" source="2EZ9If-iesUBe8Wqhh3Y-229" target="2EZ9If-iesUBe8Wqhh3Y-237">
          <mxGeometry relative="1" as="geometry" />
        </mxCell>
        <mxCell id="2EZ9If-iesUBe8Wqhh3Y-251" style="rounded=0;orthogonalLoop=1;jettySize=auto;html=1;entryX=0;entryY=0.5;entryDx=0;entryDy=0;exitX=1.01;exitY=0.645;exitDx=0;exitDy=0;exitPerimeter=0;" edge="1" parent="1" source="2EZ9If-iesUBe8Wqhh3Y-229" target="2EZ9If-iesUBe8Wqhh3Y-238">
          <mxGeometry relative="1" as="geometry" />
        </mxCell>
        <mxCell id="2EZ9If-iesUBe8Wqhh3Y-252" style="rounded=0;orthogonalLoop=1;jettySize=auto;html=1;entryX=0;entryY=0.5;entryDx=0;entryDy=0;exitX=1;exitY=1;exitDx=0;exitDy=0;" edge="1" parent="1" source="2EZ9If-iesUBe8Wqhh3Y-229" target="2EZ9If-iesUBe8Wqhh3Y-239">
          <mxGeometry relative="1" as="geometry" />
        </mxCell>
        <mxCell id="2EZ9If-iesUBe8Wqhh3Y-229" value="Notification system" style="rounded=1;whiteSpace=wrap;html=1;" vertex="1" parent="1">
          <mxGeometry x="-660" y="177" width="120" height="33" as="geometry" />
        </mxCell>
        <mxCell id="2EZ9If-iesUBe8Wqhh3Y-241" value="" style="edgeStyle=orthogonalEdgeStyle;rounded=0;orthogonalLoop=1;jettySize=auto;html=1;" edge="1" parent="1" source="2EZ9If-iesUBe8Wqhh3Y-234" target="2EZ9If-iesUBe8Wqhh3Y-240">
          <mxGeometry relative="1" as="geometry" />
        </mxCell>
        <mxCell id="2EZ9If-iesUBe8Wqhh3Y-234" value="&lt;b&gt;APN&amp;nbsp;&lt;/b&gt;&lt;br&gt;Apple Push Notification Service" style="rounded=1;whiteSpace=wrap;html=1;" vertex="1" parent="1">
          <mxGeometry x="-495" y="94" width="110" height="50" as="geometry" />
        </mxCell>
        <mxCell id="2EZ9If-iesUBe8Wqhh3Y-243" value="" style="edgeStyle=orthogonalEdgeStyle;rounded=0;orthogonalLoop=1;jettySize=auto;html=1;" edge="1" parent="1" source="2EZ9If-iesUBe8Wqhh3Y-237" target="2EZ9If-iesUBe8Wqhh3Y-242">
          <mxGeometry relative="1" as="geometry" />
        </mxCell>
        <mxCell id="2EZ9If-iesUBe8Wqhh3Y-237" value="&lt;b&gt;FCM&amp;nbsp;&lt;/b&gt;&lt;br&gt;Firebase Cloud Messaging" style="rounded=1;whiteSpace=wrap;html=1;" vertex="1" parent="1">
          <mxGeometry x="-495" y="161" width="110" height="48" as="geometry" />
        </mxCell>
        <mxCell id="2EZ9If-iesUBe8Wqhh3Y-247" value="" style="edgeStyle=orthogonalEdgeStyle;rounded=0;orthogonalLoop=1;jettySize=auto;html=1;" edge="1" parent="1" source="2EZ9If-iesUBe8Wqhh3Y-238" target="2EZ9If-iesUBe8Wqhh3Y-244">
          <mxGeometry relative="1" as="geometry" />
        </mxCell>
        <mxCell id="2EZ9If-iesUBe8Wqhh3Y-238" value="&lt;b&gt;SMS Service&lt;/b&gt;&lt;br&gt;Twilio, Nexmo" style="rounded=1;whiteSpace=wrap;html=1;" vertex="1" parent="1">
          <mxGeometry x="-495" y="223" width="110" height="48" as="geometry" />
        </mxCell>
        <mxCell id="2EZ9If-iesUBe8Wqhh3Y-246" value="" style="edgeStyle=orthogonalEdgeStyle;rounded=0;orthogonalLoop=1;jettySize=auto;html=1;" edge="1" parent="1" source="2EZ9If-iesUBe8Wqhh3Y-239" target="2EZ9If-iesUBe8Wqhh3Y-245">
          <mxGeometry relative="1" as="geometry" />
        </mxCell>
        <mxCell id="2EZ9If-iesUBe8Wqhh3Y-239" value="&lt;b&gt;Email Service&lt;/b&gt;&lt;br&gt;Sendgrid, Mailchimp" style="rounded=1;whiteSpace=wrap;html=1;" vertex="1" parent="1">
          <mxGeometry x="-495" y="283" width="110" height="48" as="geometry" />
        </mxCell>
        <mxCell id="2EZ9If-iesUBe8Wqhh3Y-240" value="iOS" style="rounded=1;whiteSpace=wrap;html=1;" vertex="1" parent="1">
          <mxGeometry x="-350" y="99.5" width="50" height="40" as="geometry" />
        </mxCell>
        <mxCell id="2EZ9If-iesUBe8Wqhh3Y-242" value="Android" style="rounded=1;whiteSpace=wrap;html=1;" vertex="1" parent="1">
          <mxGeometry x="-350" y="165.5" width="50" height="40" as="geometry" />
        </mxCell>
        <mxCell id="2EZ9If-iesUBe8Wqhh3Y-244" value="SMS" style="rounded=1;whiteSpace=wrap;html=1;" vertex="1" parent="1">
          <mxGeometry x="-350" y="227.5" width="50" height="40" as="geometry" />
        </mxCell>
        <mxCell id="2EZ9If-iesUBe8Wqhh3Y-245" value="Email" style="rounded=1;whiteSpace=wrap;html=1;" vertex="1" parent="1">
          <mxGeometry x="-350" y="287.5" width="50" height="40" as="geometry" />
        </mxCell>
        <mxCell id="2EZ9If-iesUBe8Wqhh3Y-254" value="High Level Design" style="text;html=1;strokeColor=none;fillColor=default;align=center;verticalAlign=middle;whiteSpace=wrap;rounded=0;fontStyle=1;shadow=1;" vertex="1" parent="1">
          <mxGeometry x="-530" y="35" width="155" height="30" as="geometry" />
        </mxCell>
        <mxCell id="2EZ9If-iesUBe8Wqhh3Y-261" value="app install /&amp;nbsp;&lt;br&gt;sign up" style="edgeStyle=orthogonalEdgeStyle;rounded=0;orthogonalLoop=1;jettySize=auto;html=1;" edge="1" parent="1" source="2EZ9If-iesUBe8Wqhh3Y-256" target="2EZ9If-iesUBe8Wqhh3Y-260">
          <mxGeometry y="16" relative="1" as="geometry">
            <mxPoint as="offset" />
          </mxGeometry>
        </mxCell>
        <mxCell id="2EZ9If-iesUBe8Wqhh3Y-256" value="" style="rounded=1;whiteSpace=wrap;html=1;" vertex="1" parent="1">
          <mxGeometry x="-800" y="390" width="70" height="88" as="geometry" />
        </mxCell>
        <mxCell id="2EZ9If-iesUBe8Wqhh3Y-257" value="Laptop" style="rounded=0;whiteSpace=wrap;html=1;" vertex="1" parent="1">
          <mxGeometry x="-790" y="418" width="50" height="20" as="geometry" />
        </mxCell>
        <mxCell id="2EZ9If-iesUBe8Wqhh3Y-258" value="User" style="text;html=1;strokeColor=none;fillColor=none;align=center;verticalAlign=middle;whiteSpace=wrap;rounded=0;" vertex="1" parent="1">
          <mxGeometry x="-795" y="385" width="60" height="30" as="geometry" />
        </mxCell>
        <mxCell id="2EZ9If-iesUBe8Wqhh3Y-259" value="Phone" style="rounded=0;whiteSpace=wrap;html=1;" vertex="1" parent="1">
          <mxGeometry x="-790" y="446.5" width="50" height="20" as="geometry" />
        </mxCell>
        <mxCell id="2EZ9If-iesUBe8Wqhh3Y-263" value="" style="edgeStyle=orthogonalEdgeStyle;rounded=0;orthogonalLoop=1;jettySize=auto;html=1;" edge="1" parent="1" source="2EZ9If-iesUBe8Wqhh3Y-260" target="2EZ9If-iesUBe8Wqhh3Y-262">
          <mxGeometry relative="1" as="geometry" />
        </mxCell>
        <mxCell id="2EZ9If-iesUBe8Wqhh3Y-260" value="Load&amp;nbsp;&lt;br&gt;Balancer" style="rounded=0;whiteSpace=wrap;html=1;" vertex="1" parent="1">
          <mxGeometry x="-660" y="409" width="60" height="50" as="geometry" />
        </mxCell>
        <mxCell id="2EZ9If-iesUBe8Wqhh3Y-265" value="Store contact info" style="edgeStyle=orthogonalEdgeStyle;rounded=0;orthogonalLoop=1;jettySize=auto;html=1;" edge="1" parent="1" source="2EZ9If-iesUBe8Wqhh3Y-262" target="2EZ9If-iesUBe8Wqhh3Y-264">
          <mxGeometry x="0.0654" y="16" relative="1" as="geometry">
            <mxPoint as="offset" />
          </mxGeometry>
        </mxCell>
        <mxCell id="2EZ9If-iesUBe8Wqhh3Y-262" value="App&lt;br&gt;Servers" style="rounded=0;whiteSpace=wrap;html=1;" vertex="1" parent="1">
          <mxGeometry x="-567" y="409" width="60" height="50" as="geometry" />
        </mxCell>
        <mxCell id="2EZ9If-iesUBe8Wqhh3Y-264" value="DB" style="shape=cylinder3;whiteSpace=wrap;html=1;boundedLbl=1;backgroundOutline=1;size=6.928571428571502;" vertex="1" parent="1">
          <mxGeometry x="-400" y="412.25" width="50" height="43.5" as="geometry" />
        </mxCell>
        <mxCell id="2EZ9If-iesUBe8Wqhh3Y-253" value="Contact gathering flow" style="text;html=1;strokeColor=none;fillColor=default;align=center;verticalAlign=middle;whiteSpace=wrap;rounded=0;fontStyle=1;shadow=1;" vertex="1" parent="1">
          <mxGeometry x="-815.5" y="350" width="257" height="30" as="geometry" />
        </mxCell>
        <mxCell id="2EZ9If-iesUBe8Wqhh3Y-55" value="3" style="text;html=1;strokeColor=#d6b656;fillColor=#fff2cc;align=center;verticalAlign=middle;whiteSpace=wrap;rounded=1;glass=0;shadow=1;" vertex="1" parent="1">
          <mxGeometry x="-567" y="370" width="20" height="20" as="geometry" />
        </mxCell>
        <mxCell id="2EZ9If-iesUBe8Wqhh3Y-290" value="" style="edgeStyle=orthogonalEdgeStyle;rounded=0;orthogonalLoop=1;jettySize=auto;html=1;exitX=1;exitY=0.25;exitDx=0;exitDy=0;entryX=0;entryY=0.66;entryDx=0;entryDy=0;entryPerimeter=0;endArrow=none;endFill=0;" edge="1" parent="1" source="2EZ9If-iesUBe8Wqhh3Y-288" target="2EZ9If-iesUBe8Wqhh3Y-289">
          <mxGeometry relative="1" as="geometry" />
        </mxCell>
        <mxCell id="2EZ9If-iesUBe8Wqhh3Y-288" value="&lt;b&gt;user&lt;/b&gt;&lt;br&gt;&amp;nbsp; user_id&lt;span style=&quot;white-space: pre;&quot;&gt;&#x9;&lt;span style=&quot;white-space: pre;&quot;&gt;&#x9;&lt;/span&gt;&lt;span style=&quot;white-space: pre;&quot;&gt;&#x9;&lt;/span&gt;&lt;/span&gt;bigint&lt;br&gt;&amp;nbsp; email &lt;span style=&quot;white-space: pre;&quot;&gt;&#x9;&lt;/span&gt;&lt;span style=&quot;white-space: pre;&quot;&gt;&#x9;&lt;/span&gt;&lt;span style=&quot;white-space: pre;&quot;&gt;&#x9;&lt;/span&gt;varchar&lt;br&gt;&amp;nbsp; country_code&amp;nbsp; &lt;span style=&quot;white-space: pre;&quot;&gt;&#x9;&lt;/span&gt;integer&lt;br&gt;&amp;nbsp; phone_number&lt;span style=&quot;white-space: pre;&quot;&gt;&#x9;&lt;/span&gt;integer&lt;br&gt;&amp;nbsp; created_at&lt;span style=&quot;white-space: pre;&quot;&gt;&#x9;&lt;/span&gt;&lt;span style=&quot;white-space: pre;&quot;&gt;&#x9;&lt;/span&gt;timestamp" style="rounded=0;whiteSpace=wrap;html=1;align=left;" vertex="1" parent="1">
          <mxGeometry x="-800" y="498" width="210" height="90" as="geometry" />
        </mxCell>
        <mxCell id="2EZ9If-iesUBe8Wqhh3Y-289" value="&lt;b&gt;device&lt;/b&gt;&lt;br&gt;&amp;nbsp; device_id&lt;span style=&quot;&quot;&gt;&lt;span style=&quot;&quot;&gt;&lt;span style=&quot;white-space: pre;&quot;&gt;&amp;nbsp;&amp;nbsp;&amp;nbsp;&amp;nbsp;&lt;/span&gt;&lt;/span&gt;&lt;span style=&quot;&quot;&gt;&lt;span style=&quot;white-space: pre;&quot;&gt;&amp;nbsp;&amp;nbsp;&amp;nbsp;&amp;nbsp;&lt;span style=&quot;white-space: pre;&quot;&gt;&#x9;&lt;/span&gt;&lt;/span&gt;&lt;/span&gt;&lt;/span&gt;bigint&lt;br&gt;&amp;nbsp; device_token&lt;span style=&quot;white-space: pre;&quot;&gt;&#x9;&lt;/span&gt;&lt;span style=&quot;&quot;&gt;&lt;span style=&quot;white-space: pre;&quot;&gt;&amp;nbsp;&lt;span style=&quot;white-space: pre;&quot;&gt;&#x9;&lt;/span&gt;&lt;/span&gt;&lt;/span&gt;varchar&lt;br&gt;&amp;nbsp; user_id&amp;nbsp;&lt;span style=&quot;&quot;&gt;&lt;span style=&quot;white-space: pre;&quot;&gt;&amp;nbsp;&lt;span style=&quot;white-space: pre;&quot;&gt;&#x9;&lt;/span&gt; &lt;span style=&quot;white-space: pre;&quot;&gt;&#x9;&lt;/span&gt;&lt;/span&gt;&lt;/span&gt;integer&lt;br&gt;&amp;nbsp; last_logged_in_at&lt;span style=&quot;white-space: pre;&quot;&gt;&#x9;&lt;/span&gt;timestamp" style="rounded=0;whiteSpace=wrap;html=1;align=left;" vertex="1" parent="1">
          <mxGeometry x="-540" y="498" width="210" height="90" as="geometry" />
        </mxCell>
        <mxCell id="2EZ9If-iesUBe8Wqhh3Y-291" value="1" style="text;html=1;strokeColor=none;fillColor=none;align=center;verticalAlign=middle;whiteSpace=wrap;rounded=0;" vertex="1" parent="1">
          <mxGeometry x="-612.5" y="496" width="60" height="30" as="geometry" />
        </mxCell>
        <mxCell id="2EZ9If-iesUBe8Wqhh3Y-292" value="*" style="text;html=1;strokeColor=none;fillColor=none;align=center;verticalAlign=middle;whiteSpace=wrap;rounded=0;" vertex="1" parent="1">
          <mxGeometry x="-580" y="534" width="60" height="30" as="geometry" />
        </mxCell>
        <mxCell id="2EZ9If-iesUBe8Wqhh3Y-293" value="&lt;b&gt;Third party services&lt;/b&gt;&lt;br&gt;(China)" style="rounded=1;whiteSpace=wrap;html=1;" vertex="1" parent="1">
          <mxGeometry x="-495" y="337" width="110" height="48" as="geometry" />
        </mxCell>
        <mxCell id="2EZ9If-iesUBe8Wqhh3Y-294" value="Detailed Design" style="text;html=1;strokeColor=none;fillColor=default;align=center;verticalAlign=middle;whiteSpace=wrap;rounded=0;fontStyle=1;shadow=1;" vertex="1" parent="1">
          <mxGeometry x="-823.5" y="610" width="257" height="30" as="geometry" />
        </mxCell>
        <mxCell id="2EZ9If-iesUBe8Wqhh3Y-302" style="edgeStyle=orthogonalEdgeStyle;rounded=0;orthogonalLoop=1;jettySize=auto;html=1;entryX=0;entryY=0.5;entryDx=0;entryDy=0;" edge="1" parent="1" source="2EZ9If-iesUBe8Wqhh3Y-295" target="2EZ9If-iesUBe8Wqhh3Y-296">
          <mxGeometry relative="1" as="geometry" />
        </mxCell>
        <mxCell id="2EZ9If-iesUBe8Wqhh3Y-295" value="Service N" style="rounded=1;whiteSpace=wrap;html=1;" vertex="1" parent="1">
          <mxGeometry x="-800" y="774" width="90" height="23" as="geometry" />
        </mxCell>
        <mxCell id="2EZ9If-iesUBe8Wqhh3Y-308" style="edgeStyle=orthogonalEdgeStyle;rounded=0;orthogonalLoop=1;jettySize=auto;html=1;entryX=0.5;entryY=0;entryDx=0;entryDy=0;" edge="1" parent="1" source="2EZ9If-iesUBe8Wqhh3Y-296" target="2EZ9If-iesUBe8Wqhh3Y-303">
          <mxGeometry relative="1" as="geometry" />
        </mxCell>
        <mxCell id="2EZ9If-iesUBe8Wqhh3Y-296" value="" style="rounded=1;whiteSpace=wrap;html=1;dashed=1;" vertex="1" parent="1">
          <mxGeometry x="-672.5" y="745" width="202.5" height="80" as="geometry" />
        </mxCell>
        <mxCell id="2EZ9If-iesUBe8Wqhh3Y-298" value="Authentication" style="rounded=0;whiteSpace=wrap;html=1;" vertex="1" parent="1">
          <mxGeometry x="-657.5" y="770" width="90" height="20" as="geometry" />
        </mxCell>
        <mxCell id="2EZ9If-iesUBe8Wqhh3Y-344" style="rounded=0;orthogonalLoop=1;jettySize=auto;html=1;entryX=0.046;entryY=0.979;entryDx=0;entryDy=0;entryPerimeter=0;" edge="1" parent="1" source="2EZ9If-iesUBe8Wqhh3Y-300" target="2EZ9If-iesUBe8Wqhh3Y-339">
          <mxGeometry relative="1" as="geometry" />
        </mxCell>
        <mxCell id="2EZ9If-iesUBe8Wqhh3Y-357" value="send pending" style="edgeStyle=orthogonalEdgeStyle;rounded=0;orthogonalLoop=1;jettySize=auto;html=1;entryX=0;entryY=0.5;entryDx=0;entryDy=0;" edge="1" parent="1" source="2EZ9If-iesUBe8Wqhh3Y-300" target="2EZ9If-iesUBe8Wqhh3Y-354">
          <mxGeometry relative="1" as="geometry">
            <Array as="points">
              <mxPoint x="-510" y="1005" />
            </Array>
          </mxGeometry>
        </mxCell>
        <mxCell id="2EZ9If-iesUBe8Wqhh3Y-300" value="Notification servers" style="rounded=0;whiteSpace=wrap;html=1;" vertex="1" parent="1">
          <mxGeometry x="-560" y="760" width="80" height="55" as="geometry" />
        </mxCell>
        <mxCell id="2EZ9If-iesUBe8Wqhh3Y-310" style="edgeStyle=orthogonalEdgeStyle;rounded=0;orthogonalLoop=1;jettySize=auto;html=1;entryX=0.5;entryY=0;entryDx=0;entryDy=0;" edge="1" parent="1" source="2EZ9If-iesUBe8Wqhh3Y-303" target="2EZ9If-iesUBe8Wqhh3Y-304">
          <mxGeometry relative="1" as="geometry" />
        </mxCell>
        <mxCell id="2EZ9If-iesUBe8Wqhh3Y-303" value="Cache" style="rounded=1;whiteSpace=wrap;html=1;" vertex="1" parent="1">
          <mxGeometry x="-616.25" y="850" width="90" height="23" as="geometry" />
        </mxCell>
        <mxCell id="2EZ9If-iesUBe8Wqhh3Y-304" value="" style="rounded=1;whiteSpace=wrap;html=1;" vertex="1" parent="1">
          <mxGeometry x="-624.37" y="900" width="106.25" height="50" as="geometry" />
        </mxCell>
        <mxCell id="2EZ9If-iesUBe8Wqhh3Y-305" value="DB" style="shape=cylinder3;whiteSpace=wrap;html=1;boundedLbl=1;backgroundOutline=1;size=4.714285714285666;" vertex="1" parent="1">
          <mxGeometry x="-618.12" y="905" width="30" height="35" as="geometry" />
        </mxCell>
        <mxCell id="2EZ9If-iesUBe8Wqhh3Y-306" value="device&lt;br&gt;setting&lt;br&gt;user info" style="text;html=1;strokeColor=none;fillColor=none;align=center;verticalAlign=middle;whiteSpace=wrap;rounded=0;" vertex="1" parent="1">
          <mxGeometry x="-591.24" y="907.5" width="66.25" height="30" as="geometry" />
        </mxCell>
        <mxCell id="2EZ9If-iesUBe8Wqhh3Y-312" value="" style="shape=cylinder3;whiteSpace=wrap;html=1;boundedLbl=1;backgroundOutline=1;size=7.5714285714284415;rotation=90;" vertex="1" parent="1">
          <mxGeometry x="-403" y="738.75" width="40" height="97.5" as="geometry" />
        </mxCell>
        <mxCell id="2EZ9If-iesUBe8Wqhh3Y-313" value="Message Queue iOS" style="text;html=1;strokeColor=none;fillColor=none;align=center;verticalAlign=middle;whiteSpace=wrap;rounded=0;" vertex="1" parent="1">
          <mxGeometry x="-423" y="770.5" width="73" height="30" as="geometry" />
        </mxCell>
        <mxCell id="2EZ9If-iesUBe8Wqhh3Y-316" style="edgeStyle=orthogonalEdgeStyle;rounded=0;orthogonalLoop=1;jettySize=auto;html=1;entryX=0.5;entryY=1;entryDx=0;entryDy=0;entryPerimeter=0;" edge="1" parent="1" source="2EZ9If-iesUBe8Wqhh3Y-300" target="2EZ9If-iesUBe8Wqhh3Y-312">
          <mxGeometry relative="1" as="geometry" />
        </mxCell>
        <mxCell id="2EZ9If-iesUBe8Wqhh3Y-317" value="Rate Limit" style="rounded=0;whiteSpace=wrap;html=1;" vertex="1" parent="1">
          <mxGeometry x="-657.5" y="790" width="90" height="20" as="geometry" />
        </mxCell>
        <mxCell id="2EZ9If-iesUBe8Wqhh3Y-318" value="API to send ad email" style="text;html=1;strokeColor=none;fillColor=default;align=center;verticalAlign=middle;whiteSpace=wrap;rounded=0;fontStyle=1;shadow=1;" vertex="1" parent="1">
          <mxGeometry x="-320" y="355" width="257" height="30" as="geometry" />
        </mxCell>
        <mxCell id="2EZ9If-iesUBe8Wqhh3Y-319" value="POST https://api.example.com/v1/ios/send&lt;br&gt;&lt;font style=&quot;font-size: 11px;&quot; face=&quot;Courier New&quot;&gt;{&lt;br&gt;&amp;nbsp; &quot;aps&quot;: {&lt;br&gt;&amp;nbsp; &amp;nbsp; &quot;alert: {&lt;br&gt;&amp;nbsp; &amp;nbsp; &amp;nbsp; &quot;title&quot;: &quot;Due payment&quot;&lt;br&gt;&amp;nbsp; &amp;nbsp; &amp;nbsp; &quot;body&quot;: &quot;Pay now&quot;&lt;br&gt;&amp;nbsp; &amp;nbsp; }&lt;br&gt;&amp;nbsp; }&lt;br&gt;&amp;nbsp;&amp;nbsp;&lt;/font&gt;&lt;font face=&quot;Courier New&quot;&gt;&quot;action-loc-key&quot;: &quot;PAY&quot;&lt;/font&gt;&lt;font style=&quot;font-size: 11px;&quot; face=&quot;Courier New&quot;&gt;&lt;br&gt;}&lt;/font&gt;" style="rounded=0;whiteSpace=wrap;html=1;align=left;" vertex="1" parent="1">
          <mxGeometry x="-320" y="550" width="310" height="150" as="geometry" />
        </mxCell>
        <mxCell id="2EZ9If-iesUBe8Wqhh3Y-320" value="Changes:&lt;br&gt;1. Move DB and cache from notification server&lt;br&gt;2. Add horizontal scaling&lt;br&gt;3. Decouple system components by MQ&lt;br&gt;4. Authentication and rate limiting&lt;br&gt;5. Analytics service" style="rounded=0;whiteSpace=wrap;html=1;align=left;strokeColor=none;shadow=1;" vertex="1" parent="1">
          <mxGeometry x="-823" y="643" width="260" height="90" as="geometry" />
        </mxCell>
        <mxCell id="2EZ9If-iesUBe8Wqhh3Y-335" style="edgeStyle=orthogonalEdgeStyle;rounded=0;orthogonalLoop=1;jettySize=auto;html=1;entryX=0;entryY=0.5;entryDx=0;entryDy=0;" edge="1" parent="1" source="2EZ9If-iesUBe8Wqhh3Y-321" target="2EZ9If-iesUBe8Wqhh3Y-323">
          <mxGeometry relative="1" as="geometry" />
        </mxCell>
        <mxCell id="2EZ9If-iesUBe8Wqhh3Y-337" value="retry on error" style="edgeStyle=orthogonalEdgeStyle;rounded=0;orthogonalLoop=1;jettySize=auto;html=1;entryX=0.5;entryY=0;entryDx=0;entryDy=0;" edge="1" parent="1" source="2EZ9If-iesUBe8Wqhh3Y-321" target="2EZ9If-iesUBe8Wqhh3Y-313">
          <mxGeometry x="0.0588" y="-17" relative="1" as="geometry">
            <Array as="points">
              <mxPoint x="-260" y="747" />
              <mxPoint x="-387" y="747" />
            </Array>
            <mxPoint as="offset" />
          </mxGeometry>
        </mxCell>
        <mxCell id="2EZ9If-iesUBe8Wqhh3Y-321" value="Workers" style="rounded=0;whiteSpace=wrap;html=1;" vertex="1" parent="1">
          <mxGeometry x="-290" y="767" width="60" height="40" as="geometry" />
        </mxCell>
        <mxCell id="2EZ9If-iesUBe8Wqhh3Y-334" style="edgeStyle=orthogonalEdgeStyle;rounded=0;orthogonalLoop=1;jettySize=auto;html=1;entryX=0;entryY=0.5;entryDx=0;entryDy=0;" edge="1" parent="1" source="2EZ9If-iesUBe8Wqhh3Y-323" target="2EZ9If-iesUBe8Wqhh3Y-324">
          <mxGeometry relative="1" as="geometry" />
        </mxCell>
        <mxCell id="2EZ9If-iesUBe8Wqhh3Y-323" value="&lt;b&gt;APNs&lt;/b&gt;" style="rounded=1;whiteSpace=wrap;html=1;" vertex="1" parent="1">
          <mxGeometry x="-180" y="772.5" width="60" height="30" as="geometry" />
        </mxCell>
        <mxCell id="2EZ9If-iesUBe8Wqhh3Y-324" value="iOS" style="rounded=1;whiteSpace=wrap;html=1;" vertex="1" parent="1">
          <mxGeometry x="-80" y="766.5" width="50" height="40" as="geometry" />
        </mxCell>
        <mxCell id="2EZ9If-iesUBe8Wqhh3Y-330" value="&lt;b&gt;Third party services&lt;/b&gt;&lt;br&gt;(China)" style="rounded=1;whiteSpace=wrap;html=1;" vertex="1" parent="1">
          <mxGeometry x="-180" y="950" width="60" height="60" as="geometry" />
        </mxCell>
        <mxCell id="2EZ9If-iesUBe8Wqhh3Y-331" value="&lt;b&gt;FCM&lt;/b&gt;" style="rounded=1;whiteSpace=wrap;html=1;" vertex="1" parent="1">
          <mxGeometry x="-180" y="815" width="60" height="30" as="geometry" />
        </mxCell>
        <mxCell id="2EZ9If-iesUBe8Wqhh3Y-332" value="&lt;b&gt;SMS&lt;/b&gt;" style="rounded=1;whiteSpace=wrap;html=1;" vertex="1" parent="1">
          <mxGeometry x="-180" y="859" width="60" height="30" as="geometry" />
        </mxCell>
        <mxCell id="2EZ9If-iesUBe8Wqhh3Y-333" value="&lt;b&gt;email&lt;/b&gt;" style="rounded=1;whiteSpace=wrap;html=1;" vertex="1" parent="1">
          <mxGeometry x="-180" y="905" width="60" height="30" as="geometry" />
        </mxCell>
        <mxCell id="2EZ9If-iesUBe8Wqhh3Y-336" style="edgeStyle=orthogonalEdgeStyle;rounded=0;orthogonalLoop=1;jettySize=auto;html=1;entryX=-0.052;entryY=0.511;entryDx=0;entryDy=0;entryPerimeter=0;" edge="1" parent="1" source="2EZ9If-iesUBe8Wqhh3Y-312" target="2EZ9If-iesUBe8Wqhh3Y-321">
          <mxGeometry relative="1" as="geometry" />
        </mxCell>
        <mxCell id="2EZ9If-iesUBe8Wqhh3Y-356" value="sent /&amp;nbsp;&lt;br&gt;error" style="edgeStyle=orthogonalEdgeStyle;rounded=0;orthogonalLoop=1;jettySize=auto;html=1;entryX=1;entryY=0.5;entryDx=0;entryDy=0;" edge="1" parent="1" source="2EZ9If-iesUBe8Wqhh3Y-338" target="2EZ9If-iesUBe8Wqhh3Y-354">
          <mxGeometry relative="1" as="geometry">
            <Array as="points">
              <mxPoint x="-220" y="869" />
              <mxPoint x="-220" y="1005" />
            </Array>
          </mxGeometry>
        </mxCell>
        <mxCell id="2EZ9If-iesUBe8Wqhh3Y-338" value="" style="rounded=0;whiteSpace=wrap;html=1;" vertex="1" parent="1">
          <mxGeometry x="-290" y="849.5" width="60" height="40" as="geometry" />
        </mxCell>
        <mxCell id="2EZ9If-iesUBe8Wqhh3Y-339" value="" style="shape=cylinder3;whiteSpace=wrap;html=1;boundedLbl=1;backgroundOutline=1;size=7.5714285714284415;rotation=90;" vertex="1" parent="1">
          <mxGeometry x="-410.5" y="816.75" width="47" height="97.5" as="geometry" />
        </mxCell>
        <mxCell id="2EZ9If-iesUBe8Wqhh3Y-340" value="Message Queue Android" style="text;html=1;strokeColor=none;fillColor=none;align=center;verticalAlign=middle;whiteSpace=wrap;rounded=0;" vertex="1" parent="1">
          <mxGeometry x="-427" y="848" width="73" height="30" as="geometry" />
        </mxCell>
        <mxCell id="2EZ9If-iesUBe8Wqhh3Y-341" value="retry on error" style="edgeStyle=orthogonalEdgeStyle;rounded=0;orthogonalLoop=1;jettySize=auto;html=1;entryX=-0.054;entryY=0.54;entryDx=0;entryDy=0;entryPerimeter=0;" edge="1" parent="1" source="2EZ9If-iesUBe8Wqhh3Y-342" target="2EZ9If-iesUBe8Wqhh3Y-339">
          <mxGeometry x="0.0607" y="-5" relative="1" as="geometry">
            <Array as="points">
              <mxPoint x="-264" y="822" />
              <mxPoint x="-391" y="822" />
            </Array>
            <mxPoint as="offset" />
            <mxPoint x="-390" y="837" as="targetPoint" />
          </mxGeometry>
        </mxCell>
        <mxCell id="2EZ9If-iesUBe8Wqhh3Y-345" style="edgeStyle=orthogonalEdgeStyle;rounded=0;orthogonalLoop=1;jettySize=auto;html=1;entryX=0;entryY=0.5;entryDx=0;entryDy=0;" edge="1" parent="1" source="2EZ9If-iesUBe8Wqhh3Y-342" target="2EZ9If-iesUBe8Wqhh3Y-331">
          <mxGeometry relative="1" as="geometry" />
        </mxCell>
        <mxCell id="2EZ9If-iesUBe8Wqhh3Y-342" value="Workers" style="rounded=0;whiteSpace=wrap;html=1;" vertex="1" parent="1">
          <mxGeometry x="-294" y="844.5" width="60" height="40" as="geometry" />
        </mxCell>
        <mxCell id="2EZ9If-iesUBe8Wqhh3Y-343" style="edgeStyle=orthogonalEdgeStyle;rounded=0;orthogonalLoop=1;jettySize=auto;html=1;entryX=-0.052;entryY=0.511;entryDx=0;entryDy=0;entryPerimeter=0;" edge="1" parent="1" source="2EZ9If-iesUBe8Wqhh3Y-339" target="2EZ9If-iesUBe8Wqhh3Y-342">
          <mxGeometry relative="1" as="geometry" />
        </mxCell>
        <mxCell id="2EZ9If-iesUBe8Wqhh3Y-346" value=". . ." style="text;html=1;strokeColor=none;fillColor=none;align=center;verticalAlign=middle;whiteSpace=wrap;rounded=0;fontStyle=1" vertex="1" parent="1">
          <mxGeometry x="-363.5" y="907.5" width="60" height="30" as="geometry" />
        </mxCell>
        <mxCell id="2EZ9If-iesUBe8Wqhh3Y-348" style="edgeStyle=orthogonalEdgeStyle;rounded=0;orthogonalLoop=1;jettySize=auto;html=1;entryX=0;entryY=0.5;entryDx=0;entryDy=0;" edge="1" parent="1" target="2EZ9If-iesUBe8Wqhh3Y-349">
          <mxGeometry relative="1" as="geometry">
            <mxPoint x="-120" y="830" as="sourcePoint" />
          </mxGeometry>
        </mxCell>
        <mxCell id="2EZ9If-iesUBe8Wqhh3Y-355" value="click tracking" style="edgeStyle=orthogonalEdgeStyle;rounded=0;orthogonalLoop=1;jettySize=auto;html=1;entryX=0.5;entryY=1;entryDx=0;entryDy=0;" edge="1" parent="1" source="2EZ9If-iesUBe8Wqhh3Y-349" target="2EZ9If-iesUBe8Wqhh3Y-354">
          <mxGeometry relative="1" as="geometry">
            <Array as="points">
              <mxPoint x="-55" y="1050" />
              <mxPoint x="-303" y="1050" />
            </Array>
          </mxGeometry>
        </mxCell>
        <mxCell id="2EZ9If-iesUBe8Wqhh3Y-349" value="Android" style="rounded=1;whiteSpace=wrap;html=1;" vertex="1" parent="1">
          <mxGeometry x="-80" y="809.5" width="50" height="40" as="geometry" />
        </mxCell>
        <mxCell id="2EZ9If-iesUBe8Wqhh3Y-63" value="6" style="text;html=1;strokeColor=#d6b656;fillColor=#fff2cc;align=center;verticalAlign=middle;whiteSpace=wrap;rounded=1;glass=0;shadow=1;" vertex="1" parent="1">
          <mxGeometry x="-572.5" y="600" width="20" height="20" as="geometry" />
        </mxCell>
        <mxCell id="2EZ9If-iesUBe8Wqhh3Y-350" value="Important Considerations:&lt;br&gt;1.&amp;nbsp;Authentication:&amp;nbsp;&lt;span style=&quot;background-color: initial;&quot;&gt;Implement authentication mechanisms (e.g., API key, OAuth) to secure the API endpoints.&lt;/span&gt;&lt;br&gt;2.&amp;nbsp;Authorization:&amp;nbsp;&lt;span style=&quot;background-color: initial;&quot;&gt;Ensure that only authorized users can access certain endpoints, especially those related to changing notification settings.&lt;/span&gt;&lt;br&gt;3. Opt-Out Handling&lt;br&gt;4.&amp;nbsp;Message Templating&lt;br&gt;5.&amp;nbsp;Error Handling" style="rounded=0;whiteSpace=wrap;html=1;align=left;" vertex="1" parent="1">
          <mxGeometry x="-817" y="1008.5" width="397" height="121.5" as="geometry" />
        </mxCell>
        <mxCell id="2EZ9If-iesUBe8Wqhh3Y-351" value="7" style="text;html=1;strokeColor=#d6b656;fillColor=#fff2cc;align=center;verticalAlign=middle;whiteSpace=wrap;rounded=1;glass=0;shadow=1;" vertex="1" parent="1">
          <mxGeometry x="-440" y="1004" width="20" height="20" as="geometry" />
        </mxCell>
        <mxCell id="2EZ9If-iesUBe8Wqhh3Y-352" value="&lt;b&gt;APIs:&lt;/b&gt;&lt;br&gt;1. Sending Text Notification with Attachment:&lt;br&gt;&lt;font face=&quot;Courier New&quot;&gt;&lt;b&gt;POST /api/notifications/v1/send&lt;/b&gt;&lt;br&gt;&lt;/font&gt;&lt;div&gt;&lt;font face=&quot;Courier New&quot;&gt;{&lt;/font&gt;&lt;/div&gt;&lt;div&gt;&lt;font face=&quot;Courier New&quot;&gt;&amp;nbsp; &quot;recipient&quot;: &quot;+1234567890&quot;,&lt;/font&gt;&lt;/div&gt;&lt;div&gt;&lt;font face=&quot;Courier New&quot;&gt;&amp;nbsp; &quot;message&quot;: &quot;Hello, this is a text notification!&quot;,&lt;/font&gt;&lt;/div&gt;&lt;div&gt;&lt;font face=&quot;Courier New&quot;&gt;&amp;nbsp; &quot;attachment&quot;: &quot;https://example.com/attachment.jpg&quot;&lt;/font&gt;&lt;/div&gt;&lt;div&gt;&lt;font face=&quot;Courier New&quot;&gt;}&lt;/font&gt;&lt;/div&gt;&lt;div&gt;2. Change Notification Settings (Opt-Out):&lt;br&gt;&lt;/div&gt;&lt;div&gt;&lt;font face=&quot;Courier New&quot;&gt;&lt;b&gt;PUT /api/notifications/v1/&lt;/b&gt;&lt;b&gt;settings&lt;/b&gt;&lt;br&gt;&lt;/font&gt;&lt;/div&gt;&lt;div&gt;&lt;div&gt;&lt;font face=&quot;Courier New&quot;&gt;{&lt;/font&gt;&lt;/div&gt;&lt;div&gt;&lt;font face=&quot;Courier New&quot;&gt;&amp;nbsp; &quot;userId&quot;: &quot;user123&quot;,&lt;/font&gt;&lt;/div&gt;&lt;div&gt;&lt;font face=&quot;Courier New&quot;&gt;&amp;nbsp; &quot;optOut&quot;: true&lt;/font&gt;&lt;/div&gt;&lt;div&gt;&lt;font face=&quot;Courier New&quot;&gt;}&lt;/font&gt;&lt;/div&gt;&lt;/div&gt;&lt;div&gt;3. Get Notification Templates:&lt;/div&gt;&lt;div&gt;&lt;b&gt;&lt;font face=&quot;Courier New&quot;&gt;GET /api/notifications/v1/templates&lt;/font&gt;&lt;/b&gt;&lt;br&gt;&lt;/div&gt;&lt;div&gt;4.&amp;nbsp;&lt;br&gt;&lt;b&gt;&lt;font style=&quot;font-size: 11px;&quot; face=&quot;Courier New&quot;&gt;POST https://api.example.com/v1/email/send&lt;/font&gt;&lt;/b&gt;&lt;/div&gt;" style="rounded=0;whiteSpace=wrap;html=1;align=left;" vertex="1" parent="1">
          <mxGeometry x="-817" y="1138.5" width="397" height="271.5" as="geometry" />
        </mxCell>
        <mxCell id="2EZ9If-iesUBe8Wqhh3Y-353" value="8" style="text;html=1;strokeColor=#d6b656;fillColor=#fff2cc;align=center;verticalAlign=middle;whiteSpace=wrap;rounded=1;glass=0;shadow=1;" vertex="1" parent="1">
          <mxGeometry x="-440" y="1138.5" width="20" height="20" as="geometry" />
        </mxCell>
        <mxCell id="2EZ9If-iesUBe8Wqhh3Y-354" value="Analytics service" style="rounded=1;whiteSpace=wrap;html=1;" vertex="1" parent="1">
          <mxGeometry x="-363.5" y="981" width="120" height="49" as="geometry" />
        </mxCell>
        <mxCell id="2EZ9If-iesUBe8Wqhh3Y-360" value="unsubscribe" style="edgeStyle=orthogonalEdgeStyle;rounded=0;orthogonalLoop=1;jettySize=auto;html=1;entryX=0.5;entryY=0;entryDx=0;entryDy=0;" edge="1" parent="1" source="2EZ9If-iesUBe8Wqhh3Y-359" target="2EZ9If-iesUBe8Wqhh3Y-354">
          <mxGeometry relative="1" as="geometry" />
        </mxCell>
        <mxCell id="2EZ9If-iesUBe8Wqhh3Y-359" value="Subscription management" style="rounded=1;whiteSpace=wrap;html=1;" vertex="1" parent="1">
          <mxGeometry x="-475" y="935" width="80" height="37.5" as="geometry" />
        </mxCell>
      </root>
    </mxGraphModel>
  </diagram>
</mxfile>
